<svg xmlns="http://www.w3.org/2000/svg" width="414" height="736" viewBox="0 0 414 736" xmlns:xlink="http://www.w3.org/1999/xlink">
  <defs>
    <rect id="b" width="316" height="63" rx="31.5"/>
    <filter id="a" width="108.2%" height="141.3%" x="-4.1%" y="-17.5%" filterUnits="objectBoundingBox">
      <feOffset dy="2" in="SourceAlpha" result="shadowOffsetOuter1"/>
      <feGaussianBlur stdDeviation="4" in="shadowOffsetOuter1" result="shadowBlurOuter1"/>
      <feColorMatrix values="0 0 0 0 0 0 0 0 0 0 0 0 0 0 0 0 0 0 0.309641078 0" in="shadowBlurOuter1"/>
    </filter>
    <circle id="d" cx="32.5" cy="32.5" r="32.5"/>
    <filter id="c" width="150.8%" height="150.8%" x="-25.4%" y="-17.7%" filterUnits="objectBoundingBox">
      <feMorphology radius=".5" operator="dilate" in="SourceAlpha" result="shadowSpreadOuter1"/>
      <feOffset dy="5" in="shadowSpreadOuter1" result="shadowOffsetOuter1"/>
      <feGaussianBlur stdDeviation="4.5" in="shadowOffsetOuter1" result="shadowBlurOuter1"/>
      <feComposite in="shadowBlurOuter1" in2="SourceAlpha" operator="out" result="shadowBlurOuter1"/>
      <feColorMatrix values="0 0 0 0 0 0 0 0 0 0 0 0 0 0 0 0 0 0 0.139294611 0" in="shadowBlurOuter1"/>
    </filter>
    <circle id="f" cx="32.5" cy="32.5" r="32.5"/>
    <filter id="e" width="153.8%" height="153.8%" x="-26.9%" y="-16.2%" filterUnits="objectBoundingBox">
      <feMorphology radius=".5" operator="dilate" in="SourceAlpha" result="shadowSpreadOuter1"/>
      <feOffset dy="7" in="shadowSpreadOuter1" result="shadowOffsetOuter1"/>
      <feGaussianBlur stdDeviation="4.5" in="shadowOffsetOuter1" result="shadowBlurOuter1"/>
      <feComposite in="shadowBlurOuter1" in2="SourceAlpha" operator="out" result="shadowBlurOuter1"/>
      <feColorMatrix values="0 0 0 0 0 0 0 0 0 0 0 0 0 0 0 0 0 0 0.139294611 0" in="shadowBlurOuter1"/>
    </filter>
    <circle id="h" cx="32.5" cy="32.5" r="32.5"/>
    <filter id="g" width="153.8%" height="153.8%" x="-26.9%" y="-16.2%" filterUnits="objectBoundingBox">
      <feMorphology radius=".5" operator="dilate" in="SourceAlpha" result="shadowSpreadOuter1"/>
      <feOffset dy="7" in="shadowSpreadOuter1" result="shadowOffsetOuter1"/>
      <feGaussianBlur stdDeviation="4.5" in="shadowOffsetOuter1" result="shadowBlurOuter1"/>
      <feComposite in="shadowBlurOuter1" in2="SourceAlpha" operator="out" result="shadowBlurOuter1"/>
      <feColorMatrix values="0 0 0 0 0 0 0 0 0 0 0 0 0 0 0 0 0 0 0.139294611 0" in="shadowBlurOuter1"/>
    </filter>
    <circle id="j" cx="32.5" cy="32.5" r="32.5"/>
    <filter id="i" width="153.8%" height="153.8%" x="-26.9%" y="-16.2%" filterUnits="objectBoundingBox">
      <feMorphology radius=".5" operator="dilate" in="SourceAlpha" result="shadowSpreadOuter1"/>
      <feOffset dy="7" in="shadowSpreadOuter1" result="shadowOffsetOuter1"/>
      <feGaussianBlur stdDeviation="4.5" in="shadowOffsetOuter1" result="shadowBlurOuter1"/>
      <feComposite in="shadowBlurOuter1" in2="SourceAlpha" operator="out" result="shadowBlurOuter1"/>
      <feColorMatrix values="0 0 0 0 0 0 0 0 0 0 0 0 0 0 0 0 0 0 0.139294611 0" in="shadowBlurOuter1"/>
    </filter>
    <circle id="l" cx="32.5" cy="32.5" r="32.5"/>
    <filter id="k" width="150.8%" height="150.8%" x="-25.4%" y="-17.7%" filterUnits="objectBoundingBox">
      <feMorphology radius=".5" operator="dilate" in="SourceAlpha" result="shadowSpreadOuter1"/>
      <feOffset dy="5" in="shadowSpreadOuter1" result="shadowOffsetOuter1"/>
      <feGaussianBlur stdDeviation="4.5" in="shadowOffsetOuter1" result="shadowBlurOuter1"/>
      <feComposite in="shadowBlurOuter1" in2="SourceAlpha" operator="out" result="shadowBlurOuter1"/>
      <feColorMatrix values="0 0 0 0 0 0 0 0 0 0 0 0 0 0 0 0 0 0 0.139294611 0" in="shadowBlurOuter1"/>
    </filter>
    <circle id="n" cx="32.5" cy="32.5" r="32.5"/>
    <filter id="m" width="153.8%" height="153.8%" x="-26.9%" y="-16.2%" filterUnits="objectBoundingBox">
      <feMorphology radius=".5" operator="dilate" in="SourceAlpha" result="shadowSpreadOuter1"/>
      <feOffset dy="7" in="shadowSpreadOuter1" result="shadowOffsetOuter1"/>
      <feGaussianBlur stdDeviation="4.5" in="shadowOffsetOuter1" result="shadowBlurOuter1"/>
      <feComposite in="shadowBlurOuter1" in2="SourceAlpha" operator="out" result="shadowBlurOuter1"/>
      <feColorMatrix values="0 0 0 0 0 0 0 0 0 0 0 0 0 0 0 0 0 0 0.139294611 0" in="shadowBlurOuter1"/>
    </filter>
    <circle id="p" cx="32.5" cy="32.5" r="32.5"/>
    <filter id="o" width="153.8%" height="153.8%" x="-26.9%" y="-16.2%" filterUnits="objectBoundingBox">
      <feMorphology radius=".5" operator="dilate" in="SourceAlpha" result="shadowSpreadOuter1"/>
      <feOffset dy="7" in="shadowSpreadOuter1" result="shadowOffsetOuter1"/>
      <feGaussianBlur stdDeviation="4.5" in="shadowOffsetOuter1" result="shadowBlurOuter1"/>
      <feComposite in="shadowBlurOuter1" in2="SourceAlpha" operator="out" result="shadowBlurOuter1"/>
      <feColorMatrix values="0 0 0 0 0 0 0 0 0 0 0 0 0 0 0 0 0 0 0.139294611 0" in="shadowBlurOuter1"/>
    </filter>
    <circle id="r" cx="32.5" cy="32.5" r="32.5"/>
    <filter id="q" width="153.8%" height="153.8%" x="-26.9%" y="-16.2%" filterUnits="objectBoundingBox">
      <feMorphology radius=".5" operator="dilate" in="SourceAlpha" result="shadowSpreadOuter1"/>
      <feOffset dy="7" in="shadowSpreadOuter1" result="shadowOffsetOuter1"/>
      <feGaussianBlur stdDeviation="4.5" in="shadowOffsetOuter1" result="shadowBlurOuter1"/>
      <feComposite in="shadowBlurOuter1" in2="SourceAlpha" operator="out" result="shadowBlurOuter1"/>
      <feColorMatrix values="0 0 0 0 0 0 0 0 0 0 0 0 0 0 0 0 0 0 0.139294611 0" in="shadowBlurOuter1"/>
    </filter>
    <rect id="t" width="316" height="63" rx="31.5"/>
    <filter id="s" width="110.1%" height="150.8%" x="-5.1%" y="-17.5%" filterUnits="objectBoundingBox">
      <feOffset dy="5" in="SourceAlpha" result="shadowOffsetOuter1"/>
      <feGaussianBlur stdDeviation="4.5" in="shadowOffsetOuter1" result="shadowBlurOuter1"/>
      <feColorMatrix values="0 0 0 0 0 0 0 0 0 0 0 0 0 0 0 0 0 0 0.139294611 0" in="shadowBlurOuter1"/>
    </filter>
    <polygon id="u" points="2.127 15.905 10.181 8.323 2.127 .741 .113 2.636 6.154 8.323 .113 14.009"/>
    <rect id="x" width="316" height="63" rx="31.5"/>
    <filter id="w" width="110.1%" height="150.8%" x="-5.1%" y="-17.5%" filterUnits="objectBoundingBox">
      <feOffset dy="5" in="SourceAlpha" result="shadowOffsetOuter1"/>
      <feGaussianBlur stdDeviation="4.5" in="shadowOffsetOuter1" result="shadowBlurOuter1"/>
      <feColorMatrix values="0 0 0 0 0 0 0 0 0 0 0 0 0 0 0 0 0 0 0.139294611 0" in="shadowBlurOuter1"/>
    </filter>
    <rect id="z" width="316" height="63" rx="31.5"/>
    <filter id="y" width="110.1%" height="150.8%" x="-5.1%" y="-17.5%" filterUnits="objectBoundingBox">
      <feOffset dy="5" in="SourceAlpha" result="shadowOffsetOuter1"/>
      <feGaussianBlur stdDeviation="4.5" in="shadowOffsetOuter1" result="shadowBlurOuter1"/>
      <feColorMatrix values="0 0 0 0 0 0 0 0 0 0 0 0 0 0 0 0 0 0 0.139294611 0" in="shadowBlurOuter1"/>
    </filter>
  </defs>
  <g fill="none" fill-rule="evenodd">
    <rect width="414" height="736" fill="#FFFFFF"/>
    <g transform="translate(49 651)">
      <use fill="black" filter="url(#a)" xlink:href="#b"/>
      <use fill="#0084FF" xlink:href="#b"/>
      <text fill="#FFFFFF" font-family="LucidaGrande, Lucida Grande" font-size="18" letter-spacing=".137">
        <tspan x="127.675" y="38">Review</tspan>
      </text>
      <path fill="#FFFFFF" fill-rule="nonzero" d="M226.71599,31.875 L232.670495,25.9204951 C233.109835,25.4811553 233.109835,24.7688447 232.670495,24.3295049 C232.231155,23.890165 231.518845,23.890165 231.079505,24.3295049 L224.329505,31.0795049 C223.890165,31.5188447 223.890165,32.2311553 224.329505,32.6704951 L231.079505,39.4204951 C231.518845,39.859835 232.231155,39.859835 232.670495,39.4204951 C233.109835,38.9811553 233.109835,38.2688447 232.670495,37.8295049 L226.71599,31.875 Z" transform="matrix(-1 0 0 1 457 0)"/>
    </g>
    <g fill="#4A4A4A" transform="translate(34 43)">
      <text font-family="Avenir-Heavy, Avenir" font-size="16" font-weight="600" letter-spacing=".267">
        <tspan x="100.365" y="16">Report EbonyAlert</tspan>
      </text>
      <path fill-rule="nonzero" d="M3.62132034,10.5 L11.5606602,2.56066017 C12.1464466,1.97487373 12.1464466,1.02512627 11.5606602,0.439339828 C10.9748737,-0.146446609 10.0251263,-0.146446609 9.43933983,0.439339828 L0.439339828,9.43933983 C-0.146446609,10.0251263 -0.146446609,10.9748737 0.439339828,11.5606602 L9.43933983,20.5606602 C10.0251263,21.1464466 10.9748737,21.1464466 11.5606602,20.5606602 C12.1464466,19.9748737 12.1464466,19.0251263 11.5606602,18.4393398 L3.62132034,10.5 Z"/>
    </g>
    <text fill="#E88370" font-family="LucidaGrande, Lucida Grande" font-size="18" letter-spacing=".137">
      <tspan x="143.482" y="623">error message</tspan>
    </text>
    <path fill="#4A4A4A" d="M10,0 C4.5,0 0,4.5 0,10 C0,15.5 4.5,20 10,20 C15.5,20 20,15.5 20,10 C20,4.5 15.5,0 10,0 L10,0 Z M15,13.6 L13.6,15 L10,11.4 L6.4,15 L5,13.6 L8.6,10 L5,6.4 L6.4,5 L10,8.6 L13.6,5 L15,6.4 L11.4,10 L15,13.6 L15,13.6 Z" transform="translate(365 43)"/>
    <g transform="translate(40 168)">
      <g opacity=".528">
        <use fill="black" filter="url(#c)" xlink:href="#d"/>
        <use fill="#666666" stroke="#979797" xlink:href="#d"/>
      </g>
      <g transform="translate(21.357 18.107)">
        <g stroke="#FFFFFF" stroke-width="2" transform="translate(.464)">
          <path d="M7.0184051,7.703125 L5.32854166,9.58928571 L1.87762605,9.58928571 C1.39823424,9.58928571 1,9.98933011 1,10.4754464 L1,21.7924107 C1,22.278527 1.39823424,22.6785714 1.87762605,22.6785714 L16.8986345,22.6785714 C17.3780263,22.6785714 17.7762605,22.278527 17.7762605,21.7924107 L17.7762605,10.4754464 C17.7762605,9.98933011 17.3780263,9.58928571 16.8986345,9.58928571 L13.4477188,9.58928571 L11.7578554,7.703125 L7.0184051,7.703125 Z M9.51785714,20.2388393 C7.01557239,20.2388393 5.03571429,18.2589812 5.03571429,15.7566964 C5.03571429,13.2544117 7.01557239,11.2745536 9.51785714,11.2745536 C12.0201419,11.2745536 14,13.2544117 14,15.7566964 C14,18.2589812 12.0201419,20.2388393 9.51785714,20.2388393 Z"/>
          <path d="M23.33124,1.454601 L18.5621823,6.13127111" stroke-linecap="square" transform="rotate(45 20.947 3.793)"/>
          <path d="M23.4487929,6.22612982 L18.4442262,1.31851304" stroke-linecap="square" transform="rotate(45 20.947 3.772)"/>
        </g>
        <rect width="23.214" height="23.214"/>
      </g>
      <g transform="translate(90)">
        <g opacity=".528">
          <use fill="black" filter="url(#e)" xlink:href="#f"/>
          <use fill="#666666" stroke="#979797" xlink:href="#f"/>
        </g>
        <g transform="translate(21.357 18.107)">
          <g stroke="#FFFFFF" stroke-width="2" transform="translate(.464)">
            <path d="M7.0184051,7.703125 L5.32854166,9.58928571 L1.87762605,9.58928571 C1.39823424,9.58928571 1,9.98933011 1,10.4754464 L1,21.7924107 C1,22.278527 1.39823424,22.6785714 1.87762605,22.6785714 L16.8986345,22.6785714 C17.3780263,22.6785714 17.7762605,22.278527 17.7762605,21.7924107 L17.7762605,10.4754464 C17.7762605,9.98933011 17.3780263,9.58928571 16.8986345,9.58928571 L13.4477188,9.58928571 L11.7578554,7.703125 L7.0184051,7.703125 Z M9.51785714,20.2388393 C7.01557239,20.2388393 5.03571429,18.2589812 5.03571429,15.7566964 C5.03571429,13.2544117 7.01557239,11.2745536 9.51785714,11.2745536 C12.0201419,11.2745536 14,13.2544117 14,15.7566964 C14,18.2589812 12.0201419,20.2388393 9.51785714,20.2388393 Z"/>
            <path d="M23.33124,1.454601 L18.5621823,6.13127111" stroke-linecap="square" transform="rotate(45 20.947 3.793)"/>
            <path d="M23.4487929,6.22612982 L18.4442262,1.31851304" stroke-linecap="square" transform="rotate(45 20.947 3.772)"/>
          </g>
          <rect width="23.214" height="23.214"/>
        </g>
      </g>
      <g transform="translate(180)">
        <g opacity=".528">
          <use fill="black" filter="url(#g)" xlink:href="#h"/>
          <use fill="#666666" stroke="#979797" xlink:href="#h"/>
        </g>
        <g transform="translate(21.357 18.107)">
          <g stroke="#FFFFFF" stroke-width="2" transform="translate(.464)">
            <path d="M7.0184051,7.703125 L5.32854166,9.58928571 L1.87762605,9.58928571 C1.39823424,9.58928571 1,9.98933011 1,10.4754464 L1,21.7924107 C1,22.278527 1.39823424,22.6785714 1.87762605,22.6785714 L16.8986345,22.6785714 C17.3780263,22.6785714 17.7762605,22.278527 17.7762605,21.7924107 L17.7762605,10.4754464 C17.7762605,9.98933011 17.3780263,9.58928571 16.8986345,9.58928571 L13.4477188,9.58928571 L11.7578554,7.703125 L7.0184051,7.703125 Z M9.51785714,20.2388393 C7.01557239,20.2388393 5.03571429,18.2589812 5.03571429,15.7566964 C5.03571429,13.2544117 7.01557239,11.2745536 9.51785714,11.2745536 C12.0201419,11.2745536 14,13.2544117 14,15.7566964 C14,18.2589812 12.0201419,20.2388393 9.51785714,20.2388393 Z"/>
            <path d="M23.33124,1.454601 L18.5621823,6.13127111" stroke-linecap="square" transform="rotate(45 20.947 3.793)"/>
            <path d="M23.4487929,6.22612982 L18.4442262,1.31851304" stroke-linecap="square" transform="rotate(45 20.947 3.772)"/>
          </g>
          <rect width="23.214" height="23.214"/>
        </g>
      </g>
      <g transform="translate(270)">
        <g opacity=".528">
          <use fill="black" filter="url(#i)" xlink:href="#j"/>
          <use fill="#666666" stroke="#979797" xlink:href="#j"/>
        </g>
        <g transform="translate(21.357 18.107)">
          <g stroke="#FFFFFF" stroke-width="2" transform="translate(.464)">
            <path d="M7.0184051,7.703125 L5.32854166,9.58928571 L1.87762605,9.58928571 C1.39823424,9.58928571 1,9.98933011 1,10.4754464 L1,21.7924107 C1,22.278527 1.39823424,22.6785714 1.87762605,22.6785714 L16.8986345,22.6785714 C17.3780263,22.6785714 17.7762605,22.278527 17.7762605,21.7924107 L17.7762605,10.4754464 C17.7762605,9.98933011 17.3780263,9.58928571 16.8986345,9.58928571 L13.4477188,9.58928571 L11.7578554,7.703125 L7.0184051,7.703125 Z M9.51785714,20.2388393 C7.01557239,20.2388393 5.03571429,18.2589812 5.03571429,15.7566964 C5.03571429,13.2544117 7.01557239,11.2745536 9.51785714,11.2745536 C12.0201419,11.2745536 14,13.2544117 14,15.7566964 C14,18.2589812 12.0201419,20.2388393 9.51785714,20.2388393 Z"/>
            <path d="M23.33124,1.454601 L18.5621823,6.13127111" stroke-linecap="square" transform="rotate(45 20.947 3.793)"/>
            <path d="M23.4487929,6.22612982 L18.4442262,1.31851304" stroke-linecap="square" transform="rotate(45 20.947 3.772)"/>
          </g>
          <rect width="23.214" height="23.214"/>
        </g>
      </g>
    </g>
    <g transform="translate(40 278)">
      <g opacity=".528">
        <use fill="black" filter="url(#k)" xlink:href="#l"/>
        <use fill="#666666" stroke="#979797" xlink:href="#l"/>
      </g>
      <g transform="translate(21.357 18.107)">
        <g stroke="#FFFFFF" stroke-width="2" transform="translate(.464)">
          <path d="M7.0184051,7.703125 L5.32854166,9.58928571 L1.87762605,9.58928571 C1.39823424,9.58928571 1,9.98933011 1,10.4754464 L1,21.7924107 C1,22.278527 1.39823424,22.6785714 1.87762605,22.6785714 L16.8986345,22.6785714 C17.3780263,22.6785714 17.7762605,22.278527 17.7762605,21.7924107 L17.7762605,10.4754464 C17.7762605,9.98933011 17.3780263,9.58928571 16.8986345,9.58928571 L13.4477188,9.58928571 L11.7578554,7.703125 L7.0184051,7.703125 Z M9.51785714,20.2388393 C7.01557239,20.2388393 5.03571429,18.2589812 5.03571429,15.7566964 C5.03571429,13.2544117 7.01557239,11.2745536 9.51785714,11.2745536 C12.0201419,11.2745536 14,13.2544117 14,15.7566964 C14,18.2589812 12.0201419,20.2388393 9.51785714,20.2388393 Z"/>
          <path d="M23.33124,1.454601 L18.5621823,6.13127111" stroke-linecap="square" transform="rotate(45 20.947 3.793)"/>
          <path d="M23.4487929,6.22612982 L18.4442262,1.31851304" stroke-linecap="square" transform="rotate(45 20.947 3.772)"/>
        </g>
        <rect width="23.214" height="23.214"/>
      </g>
      <g transform="translate(90)">
        <g opacity=".528">
          <use fill="black" filter="url(#m)" xlink:href="#n"/>
          <use fill="#666666" stroke="#979797" xlink:href="#n"/>
        </g>
        <g transform="translate(21.357 18.107)">
          <g stroke="#FFFFFF" stroke-width="2" transform="translate(.464)">
            <path d="M7.0184051,7.703125 L5.32854166,9.58928571 L1.87762605,9.58928571 C1.39823424,9.58928571 1,9.98933011 1,10.4754464 L1,21.7924107 C1,22.278527 1.39823424,22.6785714 1.87762605,22.6785714 L16.8986345,22.6785714 C17.3780263,22.6785714 17.7762605,22.278527 17.7762605,21.7924107 L17.7762605,10.4754464 C17.7762605,9.98933011 17.3780263,9.58928571 16.8986345,9.58928571 L13.4477188,9.58928571 L11.7578554,7.703125 L7.0184051,7.703125 Z M9.51785714,20.2388393 C7.01557239,20.2388393 5.03571429,18.2589812 5.03571429,15.7566964 C5.03571429,13.2544117 7.01557239,11.2745536 9.51785714,11.2745536 C12.0201419,11.2745536 14,13.2544117 14,15.7566964 C14,18.2589812 12.0201419,20.2388393 9.51785714,20.2388393 Z"/>
            <path d="M23.33124,1.454601 L18.5621823,6.13127111" stroke-linecap="square" transform="rotate(45 20.947 3.793)"/>
            <path d="M23.4487929,6.22612982 L18.4442262,1.31851304" stroke-linecap="square" transform="rotate(45 20.947 3.772)"/>
          </g>
          <rect width="23.214" height="23.214"/>
        </g>
      </g>
      <g transform="translate(180)">
        <g opacity=".528">
          <use fill="black" filter="url(#o)" xlink:href="#p"/>
          <use fill="#666666" stroke="#979797" xlink:href="#p"/>
        </g>
        <g transform="translate(21.357 18.107)">
          <g stroke="#FFFFFF" stroke-width="2" transform="translate(.464)">
            <path d="M7.0184051,7.703125 L5.32854166,9.58928571 L1.87762605,9.58928571 C1.39823424,9.58928571 1,9.98933011 1,10.4754464 L1,21.7924107 C1,22.278527 1.39823424,22.6785714 1.87762605,22.6785714 L16.8986345,22.6785714 C17.3780263,22.6785714 17.7762605,22.278527 17.7762605,21.7924107 L17.7762605,10.4754464 C17.7762605,9.98933011 17.3780263,9.58928571 16.8986345,9.58928571 L13.4477188,9.58928571 L11.7578554,7.703125 L7.0184051,7.703125 Z M9.51785714,20.2388393 C7.01557239,20.2388393 5.03571429,18.2589812 5.03571429,15.7566964 C5.03571429,13.2544117 7.01557239,11.2745536 9.51785714,11.2745536 C12.0201419,11.2745536 14,13.2544117 14,15.7566964 C14,18.2589812 12.0201419,20.2388393 9.51785714,20.2388393 Z"/>
            <path d="M23.33124,1.454601 L18.5621823,6.13127111" stroke-linecap="square" transform="rotate(45 20.947 3.793)"/>
            <path d="M23.4487929,6.22612982 L18.4442262,1.31851304" stroke-linecap="square" transform="rotate(45 20.947 3.772)"/>
          </g>
          <rect width="23.214" height="23.214"/>
        </g>
      </g>
      <g transform="translate(270)">
        <g opacity=".528">
          <use fill="black" filter="url(#q)" xlink:href="#r"/>
          <use fill="#666666" stroke="#979797" xlink:href="#r"/>
        </g>
        <g transform="translate(21.357 18.107)">
          <g stroke="#FFFFFF" stroke-width="2" transform="translate(.464)">
            <path d="M7.0184051,7.703125 L5.32854166,9.58928571 L1.87762605,9.58928571 C1.39823424,9.58928571 1,9.98933011 1,10.4754464 L1,21.7924107 C1,22.278527 1.39823424,22.6785714 1.87762605,22.6785714 L16.8986345,22.6785714 C17.3780263,22.6785714 17.7762605,22.278527 17.7762605,21.7924107 L17.7762605,10.4754464 C17.7762605,9.98933011 17.3780263,9.58928571 16.8986345,9.58928571 L13.4477188,9.58928571 L11.7578554,7.703125 L7.0184051,7.703125 Z M9.51785714,20.2388393 C7.01557239,20.2388393 5.03571429,18.2589812 5.03571429,15.7566964 C5.03571429,13.2544117 7.01557239,11.2745536 9.51785714,11.2745536 C12.0201419,11.2745536 14,13.2544117 14,15.7566964 C14,18.2589812 12.0201419,20.2388393 9.51785714,20.2388393 Z"/>
            <path d="M23.33124,1.454601 L18.5621823,6.13127111" stroke-linecap="square" transform="rotate(45 20.947 3.793)"/>
            <path d="M23.4487929,6.22612982 L18.4442262,1.31851304" stroke-linecap="square" transform="rotate(45 20.947 3.772)"/>
          </g>
          <rect width="23.214" height="23.214"/>
        </g>
      </g>
    </g>
    <g transform="translate(53 370)">
      <use fill="black" filter="url(#s)" xlink:href="#t"/>
      <use fill="#FFFFFF" xlink:href="#t"/>
      <path fill="#9B9B9B" d="M15,6 C16.7,6 18,4.7 18,3 C18,1.3 16.7,0 15,0 C13.3,0 12,1.3 12,3 C12,4.7 13.3,6 15,6 L15,6 Z M7,6 C8.7,6 10,4.7 10,3 C10,1.3 8.7,0 7,0 C5.3,0 4,1.3 4,3 C4,4.7 5.3,6 7,6 L7,6 Z M7,8 C4.7,8 0,9.2 0,11.5 L0,14 L14,14 L14,11.5 C14,9.2 9.3,8 7,8 L7,8 Z M15,8 C14.7,8 14.4,8 14,8.1 C15.2,8.9 16,10.1 16,11.5 L16,14 L22,14 L22,11.5 C22,9.2 17.3,8 15,8 L15,8 Z" transform="translate(23 25)"/>
      <g transform="rotate(90 131.406 157.845)">
        <mask id="v" fill="white">
          <use xlink:href="#u"/>
        </mask>
        <use fill="#D8D8D8" xlink:href="#u"/>
        <rect width="21" height="21" fill="#B4B4B4" transform="translate(-6 -2)" mask="url(#v)"/>
      </g>
      <text fill="#9B9B9B" fill-opacity=".755" font-family="LucidaGrande, Lucida Grande" font-size="18" letter-spacing=".137">
        <tspan x="55" y="40">Suspect Relationship</tspan>
      </text>
    </g>
    <g transform="translate(49 449.906)">
      <use fill="black" filter="url(#w)" xlink:href="#x"/>
      <use fill="#FFFFFF" xlink:href="#x"/>
      <path fill="#9B9B9B" d="M0,14.2 L0,18 L3.8,18 L14.8,6.9 L11,3.1 L0,14.2 L0,14.2 Z M17.7,4 C18.1,3.6 18.1,3 17.7,2.6 L15.4,0.3 C15,-0.1 14.4,-0.1 14,0.3 L12.2,2.1 L16,5.9 L17.7,4 L17.7,4 Z" transform="translate(271 23)"/>
      <text fill="#9B9B9B" fill-opacity=".755" font-family="LucidaGrande, Lucida Grande" font-size="18" letter-spacing=".137">
        <tspan x="31" y="39">Suspect name</tspan>
      </text>
    </g>
    <g transform="translate(49 529.813)">
      <use fill="black" filter="url(#y)" xlink:href="#z"/>
      <use fill="#FFFFFF" xlink:href="#z"/>
      <path fill="#9B9B9B" d="M0,14.2 L0,18 L3.8,18 L14.8,6.9 L11,3.1 L0,14.2 L0,14.2 Z M17.7,4 C18.1,3.6 18.1,3 17.7,2.6 L15.4,0.3 C15,-0.1 14.4,-0.1 14,0.3 L12.2,2.1 L16,5.9 L17.7,4 L17.7,4 Z" transform="translate(271 24)"/>
      <text fill="#9B9B9B" fill-opacity=".755" font-family="LucidaGrande, Lucida Grande" font-size="18" letter-spacing=".137">
        <tspan x="34" y="38">Description</tspan>
      </text>
    </g>
    <text fill="#9B9B9B" fill-opacity=".755" font-family="LucidaGrande, Lucida Grande" font-size="14" letter-spacing=".137">
      <tspan x="40" y="268">Suspect Photos</tspan>
    </text>
    <text fill="#9B9B9B" fill-opacity=".755" font-family="LucidaGrande, Lucida Grande" font-size="14" letter-spacing=".137">
      <tspan x="36" y="152">Missing Photos</tspan>
    </text>
    <g transform="matrix(-1 0 0 1 304 85)">
      <circle cx="137.75" cy="10" r="8" fill="#F5A623"/>
      <circle cx="94.5" cy="10" r="8" fill="#4ABFAC"/>
      <circle cx="51.25" cy="10" r="8" fill="#001049"/>
      <circle cx="8" cy="10" r="8" fill="#347CFF"/>
      <circle cx="181" cy="8" r="8" fill="#AC0E22"/>
    </g>
  </g>
</svg>
